<mxfile host="Electron" modified="2024-04-05T23:43:49.372Z" agent="Mozilla/5.0 (Windows NT 10.0; Win64; x64) AppleWebKit/537.36 (KHTML, like Gecko) draw.io/23.0.2 Chrome/120.0.6099.109 Electron/28.1.0 Safari/537.36" etag="-OvJ2jnnw5kIkTWPBhG9" version="23.0.2" type="device">
  <diagram name="Page-1" id="cy3Fpj1-zwmyej24VfAA">
    <mxGraphModel dx="864" dy="508" grid="1" gridSize="10" guides="1" tooltips="1" connect="1" arrows="1" fold="1" page="1" pageScale="1" pageWidth="1200" pageHeight="1600" math="0" shadow="0">
      <root>
        <mxCell id="0" />
        <mxCell id="1" parent="0" />
        <mxCell id="kKWkfw3zUJg7MziUc8v9-1" value="User" style="swimlane;fontStyle=1;align=center;verticalAlign=top;childLayout=stackLayout;horizontal=1;startSize=25.066666666666666;horizontalStack=0;resizeParent=1;resizeParentMax=0;resizeLast=0;collapsible=0;marginBottom=0;" parent="1" vertex="1">
          <mxGeometry x="394" y="134" width="152" height="150.06666666666666" as="geometry" />
        </mxCell>
        <mxCell id="kKWkfw3zUJg7MziUc8v9-2" value="- userId: String" style="text;strokeColor=none;fillColor=none;align=left;verticalAlign=top;spacingLeft=4;spacingRight=4;overflow=hidden;rotatable=0;points=[[0,0.5],[1,0.5]];portConstraint=eastwest;" parent="kKWkfw3zUJg7MziUc8v9-1" vertex="1">
          <mxGeometry y="25.066666666666666" width="152" height="25" as="geometry" />
        </mxCell>
        <mxCell id="kKWkfw3zUJg7MziUc8v9-3" value="- username: String" style="text;strokeColor=none;fillColor=none;align=left;verticalAlign=top;spacingLeft=4;spacingRight=4;overflow=hidden;rotatable=0;points=[[0,0.5],[1,0.5]];portConstraint=eastwest;" parent="kKWkfw3zUJg7MziUc8v9-1" vertex="1">
          <mxGeometry y="50.06666666666666" width="152" height="25" as="geometry" />
        </mxCell>
        <mxCell id="kKWkfw3zUJg7MziUc8v9-4" value="- email: String" style="text;strokeColor=none;fillColor=none;align=left;verticalAlign=top;spacingLeft=4;spacingRight=4;overflow=hidden;rotatable=0;points=[[0,0.5],[1,0.5]];portConstraint=eastwest;" parent="kKWkfw3zUJg7MziUc8v9-1" vertex="1">
          <mxGeometry y="75.06666666666666" width="152" height="25" as="geometry" />
        </mxCell>
        <mxCell id="kKWkfw3zUJg7MziUc8v9-5" value="- password: String" style="text;strokeColor=none;fillColor=none;align=left;verticalAlign=top;spacingLeft=4;spacingRight=4;overflow=hidden;rotatable=0;points=[[0,0.5],[1,0.5]];portConstraint=eastwest;" parent="kKWkfw3zUJg7MziUc8v9-1" vertex="1">
          <mxGeometry y="100.06666666666666" width="152" height="25" as="geometry" />
        </mxCell>
        <mxCell id="kKWkfw3zUJg7MziUc8v9-6" value="- taskList: TaskList" style="text;strokeColor=none;fillColor=none;align=left;verticalAlign=top;spacingLeft=4;spacingRight=4;overflow=hidden;rotatable=0;points=[[0,0.5],[1,0.5]];portConstraint=eastwest;" parent="kKWkfw3zUJg7MziUc8v9-1" vertex="1">
          <mxGeometry y="125.06666666666666" width="152" height="25" as="geometry" />
        </mxCell>
        <mxCell id="kKWkfw3zUJg7MziUc8v9-64" value="Notification" style="swimlane;fontStyle=1;align=center;verticalAlign=top;childLayout=stackLayout;horizontal=1;startSize=25.818181818181817;horizontalStack=0;resizeParent=1;resizeParentMax=0;resizeLast=0;collapsible=0;marginBottom=0;" parent="1" vertex="1">
          <mxGeometry x="388.5" y="834" width="175" height="129.8181818181818" as="geometry" />
        </mxCell>
        <mxCell id="kKWkfw3zUJg7MziUc8v9-65" value="- notificationId: String" style="text;strokeColor=none;fillColor=none;align=left;verticalAlign=top;spacingLeft=4;spacingRight=4;overflow=hidden;rotatable=0;points=[[0,0.5],[1,0.5]];portConstraint=eastwest;" parent="kKWkfw3zUJg7MziUc8v9-64" vertex="1">
          <mxGeometry y="25.818181818181817" width="175" height="26" as="geometry" />
        </mxCell>
        <mxCell id="kKWkfw3zUJg7MziUc8v9-66" value="- message: String" style="text;strokeColor=none;fillColor=none;align=left;verticalAlign=top;spacingLeft=4;spacingRight=4;overflow=hidden;rotatable=0;points=[[0,0.5],[1,0.5]];portConstraint=eastwest;" parent="kKWkfw3zUJg7MziUc8v9-64" vertex="1">
          <mxGeometry y="51.81818181818181" width="175" height="26" as="geometry" />
        </mxCell>
        <mxCell id="kKWkfw3zUJg7MziUc8v9-67" value="- timestamp: Date" style="text;strokeColor=none;fillColor=none;align=left;verticalAlign=top;spacingLeft=4;spacingRight=4;overflow=hidden;rotatable=0;points=[[0,0.5],[1,0.5]];portConstraint=eastwest;" parent="kKWkfw3zUJg7MziUc8v9-64" vertex="1">
          <mxGeometry y="77.81818181818181" width="175" height="26" as="geometry" />
        </mxCell>
        <mxCell id="kKWkfw3zUJg7MziUc8v9-68" value="- read: boolean" style="text;strokeColor=none;fillColor=none;align=left;verticalAlign=top;spacingLeft=4;spacingRight=4;overflow=hidden;rotatable=0;points=[[0,0.5],[1,0.5]];portConstraint=eastwest;" parent="kKWkfw3zUJg7MziUc8v9-64" vertex="1">
          <mxGeometry y="103.81818181818181" width="175" height="26" as="geometry" />
        </mxCell>
        <mxCell id="kKWkfw3zUJg7MziUc8v9-70" value="has" style="curved=1;startArrow=none;endArrow=diamondThin;endSize=14;endFill=0;exitX=0.49918064024390246;exitY=1;entryX=0.49904017857142857;entryY=0;rounded=0;" parent="1" edge="1">
          <mxGeometry relative="1" as="geometry">
            <Array as="points" />
            <mxPoint x="480.00203125" y="740.3478260869565" as="sourcePoint" />
            <mxPoint x="480.00203125" y="833" as="targetPoint" />
          </mxGeometry>
        </mxCell>
        <mxCell id="kKWkfw3zUJg7MziUc8v9-71" value="1" style="edgeLabel;resizable=0;labelBackgroundColor=none;fontSize=12;align=right;verticalAlign=top;" parent="kKWkfw3zUJg7MziUc8v9-70" vertex="1">
          <mxGeometry x="-1" relative="1" as="geometry" />
        </mxCell>
        <mxCell id="kKWkfw3zUJg7MziUc8v9-72" value="1" style="edgeLabel;resizable=0;labelBackgroundColor=none;fontSize=12;align=left;verticalAlign=bottom;" parent="kKWkfw3zUJg7MziUc8v9-70" vertex="1">
          <mxGeometry x="1" relative="1" as="geometry" />
        </mxCell>
        <mxCell id="kKWkfw3zUJg7MziUc8v9-73" value="Task" style="swimlane;fontStyle=1;align=center;verticalAlign=top;childLayout=stackLayout;horizontal=1;startSize=24.347826086956523;horizontalStack=0;resizeParent=1;resizeParentMax=0;resizeLast=0;collapsible=0;marginBottom=0;" parent="1" vertex="1">
          <mxGeometry x="369.5" y="523" width="205" height="216.34782608695653" as="geometry" />
        </mxCell>
        <mxCell id="kKWkfw3zUJg7MziUc8v9-74" value="- taskId: String" style="text;strokeColor=none;fillColor=none;align=left;verticalAlign=top;spacingLeft=4;spacingRight=4;overflow=hidden;rotatable=0;points=[[0,0.5],[1,0.5]];portConstraint=eastwest;" parent="kKWkfw3zUJg7MziUc8v9-73" vertex="1">
          <mxGeometry y="24.347826086956523" width="205" height="24" as="geometry" />
        </mxCell>
        <mxCell id="kKWkfw3zUJg7MziUc8v9-75" value="- title: String" style="text;strokeColor=none;fillColor=none;align=left;verticalAlign=top;spacingLeft=4;spacingRight=4;overflow=hidden;rotatable=0;points=[[0,0.5],[1,0.5]];portConstraint=eastwest;" parent="kKWkfw3zUJg7MziUc8v9-73" vertex="1">
          <mxGeometry y="48.34782608695652" width="205" height="24" as="geometry" />
        </mxCell>
        <mxCell id="kKWkfw3zUJg7MziUc8v9-76" value="- description: String" style="text;strokeColor=none;fillColor=none;align=left;verticalAlign=top;spacingLeft=4;spacingRight=4;overflow=hidden;rotatable=0;points=[[0,0.5],[1,0.5]];portConstraint=eastwest;" parent="kKWkfw3zUJg7MziUc8v9-73" vertex="1">
          <mxGeometry y="72.34782608695653" width="205" height="24" as="geometry" />
        </mxCell>
        <mxCell id="kKWkfw3zUJg7MziUc8v9-77" value="- dueDate: Date" style="text;strokeColor=none;fillColor=none;align=left;verticalAlign=top;spacingLeft=4;spacingRight=4;overflow=hidden;rotatable=0;points=[[0,0.5],[1,0.5]];portConstraint=eastwest;" parent="kKWkfw3zUJg7MziUc8v9-73" vertex="1">
          <mxGeometry y="96.34782608695653" width="205" height="24" as="geometry" />
        </mxCell>
        <mxCell id="kKWkfw3zUJg7MziUc8v9-79" value="- status: String" style="text;strokeColor=none;fillColor=none;align=left;verticalAlign=top;spacingLeft=4;spacingRight=4;overflow=hidden;rotatable=0;points=[[0,0.5],[1,0.5]];portConstraint=eastwest;" parent="kKWkfw3zUJg7MziUc8v9-73" vertex="1">
          <mxGeometry y="120.34782608695653" width="205" height="24" as="geometry" />
        </mxCell>
        <mxCell id="kKWkfw3zUJg7MziUc8v9-81" value="- notification: Notification" style="text;strokeColor=none;fillColor=none;align=left;verticalAlign=top;spacingLeft=4;spacingRight=4;overflow=hidden;rotatable=0;points=[[0,0.5],[1,0.5]];portConstraint=eastwest;" parent="kKWkfw3zUJg7MziUc8v9-73" vertex="1">
          <mxGeometry y="144.34782608695653" width="205" height="24" as="geometry" />
        </mxCell>
        <mxCell id="kKWkfw3zUJg7MziUc8v9-82" value="- createdAt: Date" style="text;strokeColor=none;fillColor=none;align=left;verticalAlign=top;spacingLeft=4;spacingRight=4;overflow=hidden;rotatable=0;points=[[0,0.5],[1,0.5]];portConstraint=eastwest;" parent="kKWkfw3zUJg7MziUc8v9-73" vertex="1">
          <mxGeometry y="168.34782608695653" width="205" height="24" as="geometry" />
        </mxCell>
        <mxCell id="kKWkfw3zUJg7MziUc8v9-83" value="- updatedAt: Date" style="text;strokeColor=none;fillColor=none;align=left;verticalAlign=top;spacingLeft=4;spacingRight=4;overflow=hidden;rotatable=0;points=[[0,0.5],[1,0.5]];portConstraint=eastwest;" parent="kKWkfw3zUJg7MziUc8v9-73" vertex="1">
          <mxGeometry y="192.34782608695653" width="205" height="24" as="geometry" />
        </mxCell>
        <mxCell id="kKWkfw3zUJg7MziUc8v9-85" value="TaskList" style="swimlane;fontStyle=1;align=center;verticalAlign=top;childLayout=stackLayout;horizontal=1;startSize=29.2;horizontalStack=0;resizeParent=1;resizeParentMax=0;resizeLast=0;collapsible=0;marginBottom=0;" parent="1" vertex="1">
          <mxGeometry x="411.5" y="350" width="117.5" height="83.2" as="geometry" />
        </mxCell>
        <mxCell id="kKWkfw3zUJg7MziUc8v9-86" value="- tasks: List" style="text;strokeColor=none;fillColor=none;align=left;verticalAlign=top;spacingLeft=4;spacingRight=4;overflow=hidden;rotatable=0;points=[[0,0.5],[1,0.5]];portConstraint=eastwest;" parent="kKWkfw3zUJg7MziUc8v9-85" vertex="1">
          <mxGeometry y="29.2" width="117.5" height="29" as="geometry" />
        </mxCell>
        <mxCell id="kKWkfw3zUJg7MziUc8v9-21" value="- taskListId: String" style="text;strokeColor=none;fillColor=none;align=left;verticalAlign=top;spacingLeft=4;spacingRight=4;overflow=hidden;rotatable=0;points=[[0,0.5],[1,0.5]];portConstraint=eastwest;" parent="kKWkfw3zUJg7MziUc8v9-85" vertex="1">
          <mxGeometry y="58.2" width="117.5" height="25" as="geometry" />
        </mxCell>
        <mxCell id="kKWkfw3zUJg7MziUc8v9-91" value="1" style="endArrow=open;html=1;endSize=12;startArrow=diamondThin;startSize=14;startFill=1;edgeStyle=orthogonalEdgeStyle;align=left;verticalAlign=bottom;rounded=0;" parent="1" edge="1">
          <mxGeometry x="-0.5625" relative="1" as="geometry">
            <mxPoint x="473" y="286" as="sourcePoint" />
            <mxPoint x="473" y="350" as="targetPoint" />
            <mxPoint as="offset" />
          </mxGeometry>
        </mxCell>
        <mxCell id="kKWkfw3zUJg7MziUc8v9-93" value="1" style="edgeLabel;html=1;align=center;verticalAlign=middle;resizable=0;points=[];" parent="kKWkfw3zUJg7MziUc8v9-91" vertex="1" connectable="0">
          <mxGeometry x="0.5938" y="6" relative="1" as="geometry">
            <mxPoint as="offset" />
          </mxGeometry>
        </mxCell>
        <mxCell id="kKWkfw3zUJg7MziUc8v9-94" value="1" style="endArrow=open;html=1;endSize=12;startArrow=diamondThin;startSize=14;startFill=0;edgeStyle=orthogonalEdgeStyle;align=left;verticalAlign=bottom;rounded=0;" parent="1" edge="1">
          <mxGeometry x="-0.6222" relative="1" as="geometry">
            <mxPoint x="475.5" y="433" as="sourcePoint" />
            <mxPoint x="475.5" y="523" as="targetPoint" />
            <mxPoint as="offset" />
          </mxGeometry>
        </mxCell>
        <mxCell id="kKWkfw3zUJg7MziUc8v9-95" value="1..." style="edgeLabel;html=1;align=center;verticalAlign=middle;resizable=0;points=[];" parent="kKWkfw3zUJg7MziUc8v9-94" vertex="1" connectable="0">
          <mxGeometry x="0.7778" y="7" relative="1" as="geometry">
            <mxPoint as="offset" />
          </mxGeometry>
        </mxCell>
      </root>
    </mxGraphModel>
  </diagram>
</mxfile>
